<?xml version="1.0" encoding="UTF-8"?>
<svg width="700pt" height="700pt" version="1.1" viewBox="0 0 700 700" xmlns="http://www.w3.org/2000/svg">
 <g>
  <path d="m455 175c0 9.6758 7.8398 17.5 17.5 17.5s17.5-7.8242 17.5-17.5v-35c0-9.6758-7.8398-17.5-17.5-17.5s-17.5 7.8242-17.5 17.5z"/>
  <path d="m542.5 175v-35c0-9.6758-7.8398-17.5-17.5-17.5s-17.5 7.8242-17.5 17.5v35c0 9.6758 7.8398 17.5 17.5 17.5s17.5-7.8242 17.5-17.5z"/>
  <path d="m490 315v-35c0-9.6758-7.8398-17.5-17.5-17.5s-17.5 7.8242-17.5 17.5v35c0 9.6758 7.8398 17.5 17.5 17.5s17.5-7.8242 17.5-17.5z"/>
  <path d="m437.5 315v-35c0-9.6758-7.8398-17.5-17.5-17.5s-17.5 7.8242-17.5 17.5v35c0 9.6758 7.8398 17.5 17.5 17.5s17.5-7.8242 17.5-17.5z"/>
  <path d="m542.5 315v-35c0-9.6758-7.8398-17.5-17.5-17.5s-17.5 7.8242-17.5 17.5v35c0 9.6758 7.8398 17.5 17.5 17.5s17.5-7.8242 17.5-17.5z"/>
  <path d="m420 472.5c9.6602 0 17.5-7.8242 17.5-17.5v-35c0-9.6758-7.8398-17.5-17.5-17.5s-17.5 7.8242-17.5 17.5v35c0 9.6758 7.8398 17.5 17.5 17.5z"/>
  <path d="m472.5 472.5c9.6602 0 17.5-7.8242 17.5-17.5v-35c0-9.6758-7.8398-17.5-17.5-17.5s-17.5 7.8242-17.5 17.5v35c0 9.6758 7.8398 17.5 17.5 17.5z"/>
  <path d="m525 472.5c9.6602 0 17.5-7.8242 17.5-17.5v-35c0-9.6758-7.8398-17.5-17.5-17.5s-17.5 7.8242-17.5 17.5v35c0 9.6758 7.8398 17.5 17.5 17.5z"/>
  <path d="m543.2 70h-53.199c-9.6602 0-17.5 7.8242-17.5 17.5s7.8398 17.5 17.5 17.5h53.199c9.2578 0 16.801 7.543 16.801 16.801v88.199h-192.5c-9.6602 0-17.5 7.8242-17.5 17.5s7.8398 17.5 17.5 17.5h192.5v105h-280v-52.5c0-9.6758-7.8398-17.5-17.5-17.5s-17.5 7.8242-17.5 17.5v175.7c0 28.559 23.238 51.801 51.801 51.801h246.4c28.559 0 51.801-23.238 51.801-51.801v-351.4c0-28.562-23.238-51.801-51.801-51.801zm16.801 403.2c0 9.2578-7.543 16.801-16.801 16.801h-246.4c-9.2734 0-16.801-7.543-16.801-16.801v-88.199h280z"/>
  <path d="m204.87 309.87 52.5-52.5c0.050781-0.050782 0.050781-0.10547 0.10547-0.15625 6.8438 3.2891 14.422 5.2852 22.523 5.2852 28.945 0 52.5-23.555 52.5-52.5 0-8.1016-1.9961-15.68-5.2852-22.523 0.050781-0.050781 0.10547-0.050781 0.15625-0.10547l52.5-52.5c0.050781-0.050782 0.050781-0.10547 0.10547-0.15625 6.8438 3.2891 14.422 5.2852 22.523 5.2852 28.945 0 52.5-23.555 52.5-52.5s-23.555-52.5-52.5-52.5-52.5 23.555-52.5 52.5c0 8.1016 1.9961 15.68 5.2852 22.523-0.050781 0.050781-0.10547 0.050781-0.15625 0.10547l-52.5 52.5c-0.050781 0.050782-0.050781 0.10547-0.10547 0.15625-6.8438-3.2891-14.422-5.2852-22.523-5.2852s-15.68 1.9961-22.523 5.2852c-0.050781-0.050781-0.050781-0.10547-0.10547-0.15625l-52.5-52.5c-0.050782-0.054687-0.10547-0.054687-0.15625-0.10547 3.2891-6.8438 5.2852-14.422 5.2852-22.523 0-28.945-23.555-52.5-52.5-52.5s-52.5 23.555-52.5 52.5c0 22.785 14.684 42.035 35 49.281v146.46c-20.316 7.2266-35 26.477-35 49.262 0 28.945 23.555 52.5 52.5 52.5s52.5-23.555 52.5-52.5c0-8.1016-1.9961-15.68-5.2852-22.523 0.050781-0.050781 0.10547-0.070312 0.15625-0.10547zm197.63-239.87c9.6406 0 17.5 7.8398 17.5 17.5s-7.8594 17.5-17.5 17.5-17.5-7.8398-17.5-17.5 7.8594-17.5 17.5-17.5zm-122.5 122.5c9.6406 0 17.5 7.8398 17.5 17.5s-7.8594 17.5-17.5 17.5-17.5-7.8398-17.5-17.5 7.8594-17.5 17.5-17.5zm-47.371-5.1289c0.050782 0.050781 0.10547 0.050781 0.15625 0.10547-3.2891 6.8438-5.2852 14.438-5.2852 22.523s1.9961 15.664 5.2852 22.523c-0.050781 0.050781-0.10547 0.050781-0.15625 0.10547l-52.5 52.5c-0.050781 0.050782-0.050781 0.10547-0.10547 0.14062-1.6289-0.77344-3.3086-1.4375-5.0234-2.0508v-146.44c1.7148-0.61328 3.3945-1.2773 5.0234-2.0469 0.050781 0.03125 0.050781 0.085937 0.10547 0.13672zm-75.129-117.37c9.6406 0 17.5 7.8398 17.5 17.5s-7.8594 17.5-17.5 17.5-17.5-7.8398-17.5-17.5 7.8594-17.5 17.5-17.5zm0 280c-9.6406 0-17.5-7.8398-17.5-17.5s7.8594-17.5 17.5-17.5 17.5 7.8398 17.5 17.5-7.8594 17.5-17.5 17.5z"/>
 </g>
</svg>
